<svg width="42" height="42" viewBox="0 0 42 42" fill="none" xmlns="http://www.w3.org/2000/svg">
<path d="M14.829 30.0003C14.0789 29.9995 13.3598 29.7012 12.8295 29.1708C12.2991 28.6404 12.0008 27.9213 12 27.1713V16.8863C12.0007 16.1809 12.2647 15.5011 12.7402 14.9801C13.2157 14.4591 13.8686 14.1343 14.571 14.0693V12.7713C14.571 12.5666 14.6523 12.3704 14.797 12.2257C14.9417 12.081 15.1379 11.9998 15.3425 11.9998C15.5471 11.9998 15.7433 12.081 15.888 12.2257C16.0327 12.3704 16.114 12.5666 16.114 12.7713V14.0573H20.229V12.7713C20.229 12.5666 20.3103 12.3704 20.455 12.2257C20.5997 12.081 20.7959 11.9998 21.0005 11.9998C21.2051 11.9998 21.4013 12.081 21.546 12.2257C21.6907 12.3704 21.772 12.5666 21.772 12.7713V14.0573H25.887V12.7713C25.887 12.5666 25.9683 12.3704 26.113 12.2257C26.2577 12.081 26.4539 11.9998 26.6585 11.9998C26.8631 11.9998 27.0593 12.081 27.204 12.2257C27.3487 12.3704 27.43 12.5666 27.43 12.7713V14.0713C28.1319 14.1365 28.7842 14.4611 29.2595 14.9817C29.7347 15.5022 29.9988 16.1814 30 16.8863V27.1713C29.9992 27.9213 29.7009 28.6404 29.1705 29.1708C28.6402 29.7012 27.9211 29.9995 27.171 30.0003H14.829ZM13.543 16.8863V27.1713C13.5435 27.5122 13.6792 27.839 13.9202 28.08C14.1613 28.3211 14.4881 28.4567 14.829 28.4573H27.171C27.5119 28.4567 27.8387 28.3211 28.0798 28.08C28.3208 27.839 28.4565 27.5122 28.457 27.1713V16.8863C28.4565 16.5454 28.3208 16.2186 28.0798 15.9775C27.8387 15.7364 27.5119 15.6008 27.171 15.6003H14.829C14.4881 15.6008 14.1613 15.7364 13.9202 15.9775C13.6792 16.2186 13.5435 16.5454 13.543 16.8863ZM24.087 22.0293C24.087 21.8257 24.1474 21.6268 24.2604 21.4576C24.3735 21.2884 24.5342 21.1565 24.7222 21.0786C24.9102 21.0007 25.1171 20.9803 25.3167 21.02C25.5164 21.0597 25.6997 21.1577 25.8436 21.3016C25.9875 21.4456 26.0855 21.6289 26.1252 21.8285C26.1649 22.0281 26.1446 22.235 26.0667 22.423C25.9888 22.6111 25.8569 22.7718 25.6877 22.8848C25.5185 22.9979 25.3195 23.0583 25.116 23.0583C24.9808 23.0584 24.8469 23.0319 24.7219 22.9802C24.597 22.9286 24.4834 22.8528 24.3877 22.7572C24.2921 22.6617 24.2162 22.5482 24.1644 22.4233C24.1126 22.2984 24.086 22.1645 24.086 22.0293H24.087ZM19.972 22.0293C19.9718 21.8257 20.032 21.6266 20.145 21.4572C20.258 21.2878 20.4187 21.1558 20.6068 21.0778C20.7948 20.9998 21.0018 20.9793 21.2015 21.019C21.4012 21.0587 21.5846 21.1567 21.7286 21.3006C21.8726 21.4446 21.9706 21.6281 22.0103 21.8278C22.0499 22.0275 22.0295 22.2344 21.9515 22.4225C21.8735 22.6106 21.7414 22.7713 21.5721 22.8843C21.4027 22.9972 21.2036 23.0575 21 23.0573C20.7273 23.0573 20.4657 22.949 20.2727 22.7562C20.0798 22.5635 19.9713 22.302 19.971 22.0293H19.972ZM15.858 22.0293C15.858 21.8257 15.9183 21.6268 16.0314 21.4576C16.1445 21.2884 16.3052 21.1565 16.4932 21.0786C16.6812 21.0007 16.8881 20.9803 17.0877 21.02C17.2874 21.0597 17.4707 21.1577 17.6146 21.3016C17.7585 21.4456 17.8565 21.6289 17.8962 21.8285C17.9359 22.0281 17.9156 22.235 17.8377 22.423C17.7598 22.6111 17.6279 22.7718 17.4587 22.8848C17.2895 22.9979 17.0905 23.0583 16.887 23.0583C16.7518 23.0584 16.6179 23.0319 16.4929 22.9802C16.368 22.9286 16.2544 22.8528 16.1587 22.7572C16.0631 22.6617 15.9872 22.5482 15.9354 22.4233C15.8836 22.2984 15.857 22.1645 15.857 22.0293H15.858Z" fill="#27AE60"/>
</svg>
