<svg width="42" height="42" viewBox="0 0 42 42" fill="none" xmlns="http://www.w3.org/2000/svg">
<path d="M14.5395 27.2305C13.8664 27.23 13.2211 26.9624 12.7451 26.4866C12.2691 26.0108 12.0013 25.3656 12.0005 24.6925V17.3085C12.001 16.6353 12.2687 15.9898 12.7447 15.5137C13.2208 15.0377 13.8663 14.77 14.5395 14.7695H22.8465C23.5025 14.7703 24.1328 15.0246 24.6056 15.4793C25.0785 15.9341 25.3572 16.554 25.3835 17.2095L27.7835 16.2485C28.1813 16.0895 28.626 16.095 29.0198 16.2637C29.4136 16.4325 29.7243 16.7508 29.8835 17.1485C29.9603 17.3392 29.9997 17.5429 29.9995 17.7485V24.2485C29.9997 24.5126 29.935 24.7727 29.8113 25.0061C29.6876 25.2394 29.5085 25.4389 29.2898 25.5869C29.0711 25.735 28.8194 25.8271 28.5568 25.8553C28.2941 25.8835 28.0286 25.8468 27.7835 25.7485L25.3835 24.7885C25.3572 25.444 25.0785 26.0639 24.6056 26.5187C24.1328 26.9734 23.5025 27.2277 22.8465 27.2285L14.5395 27.2305ZM13.3845 17.3085V24.6925C13.385 24.9986 13.5069 25.2919 13.7234 25.5083C13.9399 25.7246 14.2334 25.8462 14.5395 25.8465H22.8465C23.1525 25.8462 23.4458 25.7246 23.6622 25.5082C23.8786 25.2919 24.0002 24.9985 24.0005 24.6925V17.3085C24.0002 17.0024 23.8786 16.709 23.6623 16.4924C23.4459 16.2759 23.1526 16.154 22.8465 16.1535H14.5395C14.2333 16.154 13.9399 16.2759 13.7234 16.4924C13.5069 16.7089 13.385 17.0023 13.3845 17.3085ZM28.3005 24.4695C28.3355 24.4833 28.3733 24.4884 28.4107 24.4843C28.4481 24.4802 28.4839 24.4671 28.515 24.446C28.5462 24.4249 28.5717 24.3965 28.5894 24.3633C28.607 24.3301 28.6164 24.2931 28.6165 24.2555V17.7555C28.6164 17.7179 28.607 17.6809 28.5894 17.6477C28.5717 17.6145 28.5462 17.5861 28.515 17.565C28.4839 17.5439 28.4481 17.5308 28.4107 17.5267C28.3733 17.5226 28.3355 17.5277 28.3005 17.5415L25.3855 18.6995V23.2995L28.3005 24.4695Z" fill="#27AE60"/>
</svg>
