<svg width="42" height="42" viewBox="0 0 42 42" fill="none" xmlns="http://www.w3.org/2000/svg">
<path d="M21 30C19.22 30 17.4799 29.4722 15.9999 28.4832C14.5198 27.4943 13.3663 26.0887 12.6851 24.4442C12.0039 22.7996 11.8257 20.99 12.1729 19.2442C12.5202 17.4984 13.3774 15.8947 14.636 14.636C15.8947 13.3774 17.4984 12.5202 19.2442 12.1729C20.99 11.8257 22.7996 12.0039 24.4442 12.6851C26.0887 13.3663 27.4943 14.5198 28.4832 15.9999C29.4722 17.4799 30 19.22 30 21C29.9974 23.3861 29.0483 25.6738 27.361 27.361C25.6738 29.0483 23.3861 29.9974 21 30ZM18.763 21.75C18.7921 23.3915 19.0689 25.0192 19.584 26.578C19.7659 27.1327 20.0419 27.6519 20.4 28.113C20.676 28.433 20.878 28.5 21 28.5C21.122 28.5 21.324 28.433 21.6 28.113C21.9584 27.652 22.2348 27.1328 22.417 26.578C22.9321 25.0192 23.2089 23.3915 23.238 21.75H18.763ZM24.738 21.75C24.7075 23.5664 24.4 25.3674 23.826 27.091C23.7001 27.4413 23.5514 27.783 23.381 28.114C24.7511 27.6554 25.9595 26.8109 26.8611 25.6819C27.7626 24.5529 28.3189 23.1876 28.463 21.75H24.738ZM13.538 21.75C13.683 23.1873 14.2396 24.5522 15.141 25.6811C16.0424 26.8099 17.2504 27.6547 18.62 28.114C18.4496 27.783 18.3009 27.4413 18.175 27.091C17.6003 25.3676 17.2924 23.5665 17.262 21.75H13.536H13.538ZM23.383 13.887C23.5534 14.218 23.7021 14.5597 23.828 14.91C24.402 16.6336 24.7095 18.4346 24.74 20.251H28.465C28.3209 18.813 27.7644 17.4473 26.8625 16.3181C25.9606 15.1889 24.7516 14.3443 23.381 13.886L23.383 13.887ZM21 13.5C20.879 13.5 20.676 13.567 20.4 13.887C20.0418 14.3477 19.7654 14.8666 19.583 15.421C19.0682 16.9802 18.7918 18.6082 18.763 20.25H23.238C23.2089 18.6082 22.9321 16.9802 22.417 15.421C22.2346 14.8666 21.9583 14.3477 21.6 13.887C21.324 13.567 21.121 13.5 21 13.5ZM18.619 13.886C17.2492 14.3452 16.041 15.1899 15.1394 16.3187C14.2378 17.4476 13.6811 18.8126 13.536 20.25H17.262C17.2922 18.4339 17.5997 16.6332 18.174 14.91C18.2999 14.5593 18.4485 14.2173 18.619 13.886Z" fill="#27AE60"/>
</svg>
