<svg width="42" height="42" viewBox="0 0 42 42" fill="none" xmlns="http://www.w3.org/2000/svg">
<path d="M16.068 29.5004C15.3952 29.5037 14.7463 29.2509 14.253 28.7934C14.0108 28.5723 13.8173 28.3033 13.6847 28.0034C13.5522 27.7035 13.4835 27.3793 13.483 27.0514C13.4965 26.4711 13.7122 25.9137 14.0928 25.4755C14.4735 25.0373 14.9953 24.7458 15.568 24.6514L17.241 24.3324V16.1004C17.2496 15.6071 17.4283 15.1319 17.7468 14.7551C18.0653 14.3783 18.504 14.123 18.989 14.0324L25.755 12.5554C25.9226 12.519 26.0935 12.5006 26.265 12.5004C26.8454 12.485 27.4082 12.7002 27.8302 13.0988C28.2523 13.4975 28.4992 14.0471 28.517 14.6274V24.8794C28.5044 25.4682 28.2861 26.0341 27.9 26.4789C27.5139 26.9236 26.9843 27.2192 26.403 27.3144L26.358 27.3214C26.1876 27.3538 26.0145 27.3702 25.841 27.3704C25.1678 27.3739 24.5186 27.1211 24.025 26.6634C23.7831 26.4423 23.5899 26.1734 23.4575 25.8737C23.3251 25.574 23.2565 25.25 23.256 24.9224C23.2694 24.3422 23.485 23.785 23.8655 23.3468C24.2459 22.9086 24.7675 22.617 25.34 22.5224L27.014 22.2004V16.9354L18.745 18.7354V27.0064C18.7324 27.5951 18.5141 28.1609 18.1279 28.6055C17.7418 29.05 17.2122 29.3454 16.631 29.4404L16.587 29.4474C16.416 29.4813 16.2423 29.499 16.068 29.5004ZM17.241 25.7804L15.863 26.0434C15.6214 26.0815 15.4009 26.2034 15.2401 26.3877C15.0792 26.5719 14.9882 26.8068 14.983 27.0514C14.9911 27.3324 15.1105 27.5986 15.3149 27.7916C15.5193 27.9846 15.792 28.0884 16.073 28.0804C16.1462 28.0802 16.2191 28.0731 16.291 28.0594L16.335 28.0524C16.5838 28.011 16.8103 27.8843 16.9757 27.6939C17.1411 27.5035 17.2349 27.2615 17.241 27.0094V25.7804ZM27.013 23.6514L25.635 23.9144C25.3938 23.9528 25.1738 24.0748 25.0134 24.2591C24.8531 24.4434 24.7627 24.6782 24.758 24.9224C24.7661 25.2028 24.8851 25.4686 25.0888 25.6615C25.2926 25.8544 25.5645 25.9586 25.845 25.9514C25.9182 25.9512 25.9911 25.9441 26.063 25.9304L26.106 25.9234C26.3551 25.8822 26.582 25.7554 26.7476 25.5648C26.9132 25.3742 27.0071 25.1318 27.013 24.8794V23.6514ZM26.259 13.9224C26.2025 13.9226 26.1462 13.9286 26.091 13.9404L19.328 15.4164C19.1669 15.4473 19.0213 15.5325 18.9152 15.6576C18.8092 15.7828 18.7491 15.9404 18.745 16.1044V17.2754L27.014 15.4754V14.6284C27.0072 14.4349 26.9241 14.252 26.7828 14.1197C26.6415 13.9874 26.4535 13.9164 26.26 13.9224H26.259Z" fill="#27AE60"/>
</svg>
